# AST/ASF file generated using VICON BodyLanguage
# -----------------------------------------------
:version 1.10
:name VICON
:units
  mass 1.0
  length 0.45
  angle deg
:documentation
   .ast/.asf automatically generated from VICON data using
   VICON BodyBuilder and BodyLanguage model FoxedUp or BRILLIANT.MOD
:root
   order TX TY TZ RX RY RZ
   axis XYZ
   position 0 0 0  
   orientation 0 0 0 
:bonedata
  begin
     id 1 
     name lhipjoint
     direction 0.623415 -0.642378 0.445763 
     length 2.49859 
     axis 0 0 0  XYZ
  end
  begin
     id 2 
     name lfemur
     direction 0.34202 -0.939693 0  
     length 6.69689  
     axis 0 0 20  XYZ
    dof rx ry rz
    limits (-160.0 20.0)
           (-70.0 70.0)
           (-60.0 70.0)
  end
  begin
     id 3 
     name ltibia
     direction 0.34202 -0.939693 0   
     length 7.37574   
     axis 0 0 20   XYZ
    dof rx
    limits (-10.0 170.0)
  end
  begin
     id 4 
     name lfoot
     direction 0.084323 -0.231675 0.969132   
     length 2.09111   
     axis -90 7.62852e-016 20   XYZ
    dof rx rz
    limits (-45.0 90.0)
           (-70.0 20.0)
  end
  begin
     id 5 
     name ltoes
     direction 1.5357e-011 -4.21957e-011 1   
     length 1.04989   
     axis -90 7.62852e-016 20   XYZ
    dof rx
    limits (-90.0 20.0)
  end
  begin
     id 6 
     name rhipjoint
     direction -0.605402 -0.653903 0.45376   
     length 2.45455  
     axis 0 0 0  XYZ 
  end
  begin
     id 7 
     name rfemur
     direction -0.34202 -0.939693 0   
     length 6.64523   
     axis 0 0 -20   XYZ
    dof rx ry rz
    limits (-160.0 20.0)
           (-70.0 70.0)
           (-70.0 60.0)
  end
  begin
     id 8 
     name rtibia
     direction -0.34202 -0.939693 0   
     length 7.3339   
     axis 0 0 -20   XYZ
    dof rx
    limits (-10.0 170.0)
 end
 begin
     id 9 
     name rfoot
     direction -0.120854 -0.332043 0.93549   
     length 2.23135  
     axis -90 -7.62852e-016 -20   XYZ
    dof rx rz
    limits (-45.0 90.0)
           (-20.0 70.0)
  end
  begin
     id 10 
     name rtoes
     direction -1.53563e-011 -4.21914e-011 1   
     length 1.10614   
     axis -90 -7.62852e-016 -20   XYZ
    dof rx
    limits (-90.0 20.0)
  end
  begin
     id 11 
     name lowerback
     direction 0.0319682 0.998615 -0.0417941   
     length 2.02718   
     axis 0 0 0   XYZ
    dof rx ry rz
    limits (-20.0 45.0)
           (-30.0 30.0)
           (-30.0 30.0)
  end
  begin
     id 12 
     name upperback
     direction 7.63181e-005 0.995808 0.0914691   
     length 1.97539   
     axis 0 0 0   XYZ
    dof rx ry rz
    limits (-20.0 45.0)
           (-30.0 30.0)
           (-30.0 30.0)
  end
  begin
     id 13 
     name thorax
     direction -0.016423 0.993627 0.111514   
     length 2.00349   
     axis 0 0 0   XYZ
    dof rx ry rz
    limits (-20.0 45.0)
           (-30.0 30.0)
           (-30.0 30.0)
  end
  begin
     id 14 
     name lowerneck
     direction -0.174763 0.981668 -0.0760716   
     length 1.71436   
     axis 0 0 0   XYZ
    dof rx ry rz
    limits (-20.0 45.0)
           (-30.0 30.0)
           (-30.0 30.0)
  end
  begin
     id 15 
     name upperneck
     direction 0.345458 0.934587 -0.0848868   
     length 1.72805   
     axis 0 0 0   XYZ
    dof rx ry rz
    limits (-20.0 45.0)
           (-30.0 30.0)
           (-30.0 30.0)
  end
  begin
     id 16
     name head
     direction 0.13001 0.989848 -0.0574291  
     length 1.767  
     axis 0 0 0   XYZ
    dof rx ry rz
    limits (-20.0 45.0)
           (-30.0 30.0)
           (-30.0 30.0)
  end
  begin
     id 17 
     name lclavicle
     direction 0.952951 0.290122 0.0878234  
     length 3.54654  
     axis 0 0 0   XYZ
    dof ry rz
    limits (-20.0 10.0)
           (0.0 20.0)
  end
  begin
     id 18 
     name lhumerus
     direction 1 -4.48957e-011 -4.56525e-028   
     length 5.19807   
     axis 180 -30 -90   XYZ
    dof rx ry rz
    limits (-60.0 90.0)
           (-90.0 90.0)
           (-90.0 90.0)
  end
  begin
     id 19
     name lradius
     direction 1 -4.48979e-011 -2.0317e-027   
     length 3.0937   
     axis 180 -30 -90   XYZ
    dof rx
    limits (-10.0 170.0)
  end
  begin
     id 20
     name lwrist
     direction 1 -4.48953e-011 -3.05809e-027   
     length 1.54685   
     axis 8.48514e-016 90 90   XYZ
    dof ry
    limits (-180.0 0.0)
 end
  begin
     id 21 
     name lhand
     direction 1 -4.48952e-011 -6.11639e-027   
     length 0.672632   
     axis 3.9013e-015 90 90   XYZ
    dof rx rz
    limits (-90.0 90.0)
           (-45.0 45.0)
  end
  begin
     id 22 
     name lfingers
     direction 1 -4.48925e-011 -1.22426e-026   
     length 0.542293   
     axis 7.80276e-015 90 90   XYZ
    dof rx
    limits (0.0 90.0)
  end
  begin
     id 23
     name lthumb
     direction 0.707107 -6.3486e-011 0.707107   
     length 0.778628   
     axis -90 45 5.37419e-014   XYZ
    dof rx rz
    limits (-45.0 45.0)
           (-45.0 45.0)
  end
  begin
     id 24 
     name rclavicle
     direction -0.960732 0.273675 -0.0457849   
     length 3.52079  
     axis 0 0 0   XYZ 
    dof ry rz
    limits (-10.0 20.0)
           (-20.0 0.0)
  end
  begin
     id 25 
     name rhumerus
     direction -1 -4.48976e-011 -1.63613e-027  
     length 5.45222   
     axis 180 30 90   XYZ
    dof rx ry rz
    limits (-90.0 60.0)
           (-90.0 90.0)
           (-90.0 90.0)
  end
  begin
     id 26 
     name rradius
     direction -1 -4.48957e-011 -7.00033e-028   
     length 3.01284   
     axis 180 30 90   XYZ
    dof rx
    limits (-10.0 170.0)
  end
  begin
     id 27 
     name rwrist
     direction -1 -4.48983e-011 -3.05543e-027   
     length 1.50642   
     axis 8.48514e-016 -90 -90   XYZ
    dof ry
    limits (-180.0 0.0)
  end
  begin
     id 28
     name rhand
     direction -1 -4.48984e-011 -6.11072e-027   
     length 0.622296   
     axis 3.9013e-015 -90 -90   XYZ
    dof rx rz
    limits (-90.0 90.0)
           (-45.0 45.0)
  end
  begin
     id 29
     name rfingers
     direction -1 -4.48865e-011 -1.22637e-026   
     length 0.501711   
     axis 7.80276e-015 -90 -90   XYZ
    dof rx
    limits (0.0 90.0)
  end
  begin
     id 30
     name rthumb
     direction -0.707107 -6.34932e-011 0.707107   
     length 0.72036   
     axis -90 -45 -5.37419e-014   XYZ
    dof rx rz
    limits (-45.0 45.0)
           (-45.0 45.0)
  end
:hierarchy
  begin
    root lhipjoint rhipjoint lowerback
    lhipjoint lfemur
    lfemur ltibia
    ltibia lfoot
    lfoot ltoes
    rhipjoint rfemur
    rfemur rtibia
    rtibia rfoot
    rfoot rtoes
    lowerback upperback
    upperback thorax
    thorax lowerneck lclavicle rclavicle
    lowerneck upperneck
    upperneck head
    lclavicle lhumerus
    lhumerus lradius
    lradius lwrist
    lwrist lhand lthumb
    lhand lfingers
    rclavicle rhumerus
    rhumerus rradius
    rradius rwrist
    rwrist rhand rthumb
    rhand rfingers
  end

#!OML:ASF H:\Not Pregnant\Project 1\Capture day 1\Session 1\non-pregnant.ASF
:FULLY-SPECIFIED
:DEGREES
22
root -5.27753 15.6245 37.9817 -168.088 -3.32852 -179.533
lowerback -4.4893 1.84469 0.479351
upperback -7.05531 1.84028 -0.819589
thorax -4.73642 0.616112 -1.08911
lowerneck 28.7226 -6.46467 -29.0034
upperneck -18.3674 -19.3847 45.118
head -1.73902 -14.5032 26.4268
rclavicle -1.33807e-014 -8.15017e-015
rhumerus -38.1964 -10.2343 -80.8169
rradius 25.9628
rwrist 23.8129
rhand -7.94336 -1.82499
rfingers 7.12502
rthumb 17.9633 -31.0154
lclavicle -1.33807e-014 -8.15017e-015
lhumerus -44.0709 -11.7696 93.6785
lradius 32.3678
lwrist 36.1257
lhand -14.6699 -9.22104
lfingers 7.12502
lthumb 11.4831 20.4445
rfemur -23.7915 3.29673 18.7704
rtibia 42.0636
rfoot -22.9527 4.95823
rtoes -21.8283
lfemur -21.6511 -1.07717 -22.828
ltibia 33.1783
lfoot -25.2346 -7.43282
ltoes -2.22908
23
root -5.28891 15.6173 37.9674 -168.305 -3.20848 -179.837
lowerback -4.07182 1.77195 0.105317
upperback -6.91607 1.77652 -0.870695
thorax -4.83702 0.614457 -0.942785
lowerneck 28.7242 -6.51228 -28.9153
upperneck -18.5765 -19.4331 45.2216
head -1.76649 -14.5582 26.4961
rclavicle 5.80203e-015 -2.5842e-015
rhumerus -38.0406 -10.2144 -80.8606
rradius 26.0763
rwrist 23.7266
rhand -8.06275 -1.93763
rfingers 7.12502
rthumb 17.8485 -31.1386
lclavicle 5.80203e-015 -2.5842e-015
lhumerus -43.9692 -11.8096 93.5889
lradius 32.3946
lwrist 36.1531
lhand -14.6846 -9.24787
lfingers 7.12502
lthumb 11.4689 20.4184
rfemur -24.7061 3.38758 18.3952
rtibia 44.1671
rfoot -22.2782 5.18971
rtoes -22.655
lfemur -21.1531 -1.08735 -23.2235
ltibia 32.8683
lfoot -25.2053 -7.39926
ltoes -2.16334
24
root -5.30008 15.6103 37.9526 -168.544 -3.07962 -180.153
lowerback -3.63441 1.69882 -0.280801
upperback -6.7639 1.70975 -0.925585
thorax -4.93556 0.612175 -0.793382
lowerneck 28.6807 -6.5524 -28.8432
upperneck -18.7415 -19.4708 45.3198
head -1.77707 -14.6036 26.5546
rclavicle 2.56308e-014 2.98177e-015
rhumerus -37.8752 -10.2144 -80.9018
rradius 26.1757
rwrist 23.6769
rhand -8.21801 -2.0168
rfingers 7.12502
rthumb 17.6991 -31.2313
lclavicle 2.56308e-014 2.98177e-015
lhumerus -43.8462 -11.8344 93.485
lradius 32.3934
lwrist 36.1536
lhand -14.7116 -9.27391
lfingers 7.12502
lthumb 11.4429 20.3938
rfemur -25.6584 3.45924 18.0099
rtibia 46.3359
rfoot -21.4594 5.48392
rtoes -23.3326
lfemur -20.6044 -1.072 -23.6331
ltibia 32.5216
lfoot -25.1621 -7.38908
ltoes -2.04245
25
root -5.31114 15.6034 37.9369 -168.802 -2.94225 -180.469
lowerback -3.18294 1.63112 -0.660182
upperback -6.60687 1.6459 -0.986097
thorax -5.03654 0.610573 -0.653235
lowerneck 28.6144 -6.58383 -28.7735
upperneck -18.8634 -19.4957 45.4084
head -1.77927 -14.64 26.6008
rclavicle 7.96381e-015 1.31198e-014
rhumerus -37.7169 -10.2353 -80.9443
rradius 26.2652
rwrist 23.6571
rhand -8.41438 -2.05447
rfingers 7.12502
rthumb 17.5101 -31.2859
lclavicle 7.96381e-015 1.31198e-014
lhumerus -43.7125 -11.8583 93.3683
lradius 32.3632
lwrist 36.1296
lhand -14.7479 -9.30915
lfingers 7.12502
lthumb 11.4079 20.3605
rfemur -26.6409 3.50819 17.6316
rtibia 48.54
rfoot -20.4935 5.83556
rtoes -23.8077
lfemur -20.0273 -1.01964 -24.0431
ltibia 32.1615
lfoot -25.1171 -7.39956
ltoes -1.9138
26
root -5.32203 15.5963 37.9201 -169.067 -2.80333 -180.774
lowerback -2.72256 1.56574 -1.02512
upperback -6.4481 1.58048 -1.04666
thorax -5.14029 0.60696 -0.520735
lowerneck 28.5115 -6.61342 -28.7161
upperneck -18.9516 -19.5163 45.4902
head -1.76642 -14.6702 26.633
rclavicle 3.08116e-015 1.19271e-015
rhumerus -37.557 -10.2867 -80.9794
rradius 26.3475
rwrist 23.6499
rhand -8.57496 -2.05803
rfingers 7.12502
rthumb 17.3555 -31.3032
lclavicle 3.08116e-015 1.19271e-015
lhumerus -43.5675 -11.8726 93.2395
lradius 32.3049
lwrist 36.0818
lhand -14.7836 -9.35076
lfingers 7.12502
lthumb 11.3735 20.3208
rfemur -27.6499 3.53052 17.2723
rtibia 50.7472
rfoot -19.3844 6.22033
rtoes -24.0139
lfemur -19.4442 -0.935084 -24.442
ltibia 31.8098
lfoot -25.0787 -7.42632
ltoes -1.79266
27
root -5.33249 15.5884 37.9021 -169.325 -2.67351 -181.061
lowerback -2.27491 1.50158 -1.36825
upperback -6.29758 1.51076 -1.10617
thorax -5.24486 0.598931 -0.398348
lowerneck 28.4058 -6.63412 -28.664
upperneck -19.0084 -19.5266 45.5593
head -1.75121 -14.6924 26.6562
rclavicle -7.57867e-015 2.78299e-015
rhumerus -37.4133 -10.3711 -81.0055
rradius 26.4254
rwrist 23.651
rhand -8.69196 -2.03319
rfingers 7.12502
rthumb 17.2429 -31.2882
lclavicle -7.57867e-015 2.78299e-015
lhumerus -43.4302 -11.8806 93.0994
lradius 32.2264
lwrist 36.0147
lhand -14.8153 -9.3905
lfingers 7.12502
lthumb 11.3429 20.2828
rfemur -28.6834 3.51753 16.9455
rtibia 52.9227
rfoot -18.1563 6.59058
rtoes -23.986
lfemur -18.8862 -0.817808 -24.818
ltibia 31.4891
lfoot -25.0563 -7.48187
ltoes -1.67074
28
root -5.34276 15.5798 37.8824 -169.561 -2.55654 -181.324
lowerback -1.86017 1.43809 -1.6795
upperback -6.15568 1.43681 -1.16375
thorax -5.33873 0.585945 -0.290288
lowerneck 28.2822 -6.65021 -28.6265
upperneck -19.0361 -19.5347 45.623
head -1.72449 -14.7106 26.6719
rclavicle 1.22377e-014 -5.1684e-015
rhumerus -37.2802 -10.4963 -81.02
rradius 26.4979
rwrist 23.6581
rhand -8.76258 -2.00242
rfingers 7.12502
rthumb 17.175 -31.2634
lclavicle 1.22377e-014 -5.1684e-015
lhumerus -43.296 -11.884 92.9502
lradius 32.1303
lwrist 35.9345
lhand -14.8367 -9.42897
lfingers 7.12502
lthumb 11.3222 20.2454
rfemur -29.7408 3.45556 16.6588
rtibia 55.0319
rfoot -16.8523 6.87386
rtoes -23.85
lfemur -18.3745 -0.669517 -25.1647
ltibia 31.2151
lfoot -25.0554 -7.57094
ltoes -1.54554
29
root -5.35286 15.5707 37.8604 -169.766 -2.45134 -181.554
lowerback -1.49445 1.377 -1.95041
upperback -6.02791 1.3618 -1.21521
thorax -5.41834 0.569031 -0.196774
lowerneck 28.1512 -6.65843 -28.6055
upperneck -19.0287 -19.5396 45.6782
head -1.68757 -14.7242 26.6809
rclavicle -1.2101e-014 2.38542e-015
rhumerus -37.1726 -10.6632 -81.0186
rradius 26.5752
rwrist 23.6501
rhand -8.7764 -2.00009
rfingers 7.12502
rthumb 17.1617 -31.2622
lclavicle -1.2101e-014 2.38542e-015
lhumerus -43.1665 -11.8779 92.7959
lradius 32.0138
lwrist 35.8437
lhand -14.8556 -9.46016
lfingers 7.12502
lthumb 11.304 20.2152
rfemur -30.8135 3.33685 16.4279
rtibia 57.0376
rfoot -15.5706 6.98999
rtoes -23.7872
lfemur -17.9235 -0.501075 -25.4699
ltibia 30.9982
lfoot -25.0792 -7.68262
ltoes -1.41281
30
root -5.36279 15.5608 37.8359 -169.927 -2.36992 -181.753
lowerback -1.19043 1.31418 -2.18019
upperback -5.91768 1.28099 -1.26184
thorax -5.47988 0.545617 -0.119254
lowerneck 28.0128 -6.66393 -28.5972
upperneck -18.9831 -19.5439 45.7183
head -1.64003 -14.7328 26.6734
rclavicle 6.52262e-015 8.34896e-015
rhumerus -37.0873 -10.8723 -81.0007
rradius 26.6452
rwrist 23.6315
rhand -8.76185 -1.99535
rfingers 7.12502
rthumb 17.1757 -31.2562
lclavicle 6.52262e-015 8.34896e-015
lhumerus -43.051 -11.8589 92.6354
lradius 31.8873
lwrist 35.7398
lhand -14.8642 -9.48852
lfingers 7.12502
lthumb 11.2958 20.1873
rfemur -31.8987 3.14885 16.2535
rtibia 58.9052
rfoot -14.4144 6.93068
rtoes -23.8691
lfemur -17.5443 -0.317804 -25.7359
ltibia 30.8346
lfoot -25.1264 -7.83094
ltoes -1.27374
31
root -5.37267 15.5512 37.8082 -170.041 -2.30681 -181.913
lowerback -0.95954 1.25431 -2.36071
upperback -5.82914 1.2016 -1.30536
thorax -5.52101 0.518709 -0.0642791
lowerneck 27.8799 -6.6629 -28.5995
upperneck -18.9018 -19.5479 45.7481
head -1.58458 -14.7388 26.658
rclavicle -3.41661e-016 1.41137e-014
rhumerus -37.0435 -11.1301 -80.965
rradius 26.7164
rwrist 23.6002
rhand -8.72904 -1.98506
rfingers 7.12502
rthumb 17.2073 -31.2432
lclavicle -3.41661e-016 1.41137e-014
lhumerus -42.9584 -11.8584 92.4867
lradius 31.7512
lwrist 35.667
lhand -14.8882 -9.52191
lfingers 7.12502
lthumb 11.2726 20.1552
rfemur -32.9865 2.8844 16.1487
rtibia 60.5972
rfoot -13.4984 6.73038
rtoes -24.1442
lfemur -17.2302 -0.128366 -25.9564
ltibia 30.7087
lfoot -25.1907 -7.99705
ltoes -1.15334
32
root -5.38236 15.5425 37.777 -170.111 -2.26523 -182.048
lowerback -0.80104 1.19184 -2.50855
upperback -5.76389 1.11675 -1.34267
thorax -5.54432 0.485859 -0.0193182
lowerneck 27.766 -6.64437 -28.6257
upperneck -18.7761 -19.5433 45.7624
head -1.52507 -14.7365 26.6413
rclavicle -9.59136e-015 5.96354e-016
rhumerus -37.0458 -11.4107 -80.9124
rradius 26.7829
rwrist 23.5511
rhand -8.69275 -1.96342
rfingers 7.12502
rthumb 17.2422 -31.2185
lclavicle -9.59136e-015 5.96354e-016
lhumerus -42.8946 -11.8572 92.3501
lradius 31.6055
lwrist 35.6098
lhand -14.9266 -9.55183
lfingers 7.12502
lthumb 11.2356 20.1273
rfemur -34.0663 2.54398 16.1044
rtibia 62.0808
rfoot -12.8718 6.48501
rtoes -24.4761
lfemur -16.9612 0.0567666 -26.1435
ltibia 30.5917
lfoot -25.2581 -8.18037
ltoes -1.05034
33
root -5.39186 15.5359 37.7422 -170.144 -2.24896 -182.164
lowerback -0.701418 1.12743 -2.62907
upperback -5.71925 1.02772 -1.37854
thorax -5.55478 0.44815 0.01322
lowerneck 27.6648 -6.61605 -28.665
upperneck -18.6102 -19.5349 45.7617
head -1.4602 -14.729 26.6167
rclavicle -1.44181e-014 -4.17448e-015
rhumerus -37.0942 -11.7244 -80.8411
rradius 26.8381
rwrist 23.4977
rhand -8.67406 -1.92066
rfingers 7.12502
rthumb 17.2602 -31.1742
lclavicle -1.44181e-014 -4.17448e-015
lhumerus -42.8591 -11.8712 92.2285
lradius 31.4558
lwrist 35.5674
lhand -14.981 -9.59289
lfingers 7.12502
lthumb 11.1831 20.0891
rfemur -35.1222 2.13473 16.1138
rtibia 63.3264
rfoot -12.5343 6.28551
rtoes -24.736
lfemur -16.7082 0.225459 -26.3051
ltibia 30.4488
lfoot -25.3125 -8.37972
ltoes -0.950582
34
root -5.40109 15.532 37.7037 -170.153 -2.25791 -182.272
lowerback -0.639529 1.06029 -2.73543
upperback -5.69051 0.93365 -1.4142
thorax -5.55985 0.40621 0.0389584
lowerneck 27.5717 -6.58801 -28.716
upperneck -18.4267 -19.5317 45.75
head -1.39 -14.721 26.5833
rclavicle -1.76421e-015 -3.77691e-015
rhumerus -37.1872 -12.0582 -80.7553
rradius 26.8912
rwrist 23.4272
rhand -8.67263 -1.85805
rfingers 7.12502
rthumb 17.2615 -31.1114
lclavicle -1.76421e-015 -3.77691e-015
lhumerus -42.8396 -11.8972 92.1203
lradius 31.298
lwrist 35.5307
lhand -15.0382 -9.63883
lfingers 7.12502
lthumb 11.1279 20.0461
rfemur -36.1392 1.67659 16.1639
rtibia 64.3126
rfoot -12.4295 6.21085
rtoes -24.8038
lfemur -16.4373 0.355923 -26.4492
ltibia 30.2464
lfoot -25.3288 -8.59914
ltoes -0.772498
35
root -5.4099 15.531 37.6618 -170.149 -2.29907 -182.383
lowerback -0.603358 0.986187 -2.84281
upperback -5.6734 0.829004 -1.44837
thorax -5.56215 0.358352 0.0676812
lowerneck 27.4954 -6.55542 -28.7743
upperneck -18.2272 -19.5234 45.7213
head -1.32352 -14.7063 26.5419
rclavicle -1.08897e-014 -9.93923e-016
rhumerus -37.3213 -12.4041 -80.6525
rradius 26.9367
rwrist 23.3415
rhand -8.68285 -1.79007
rfingers 7.12502
rthumb 17.2517 -31.0443
lclavicle -1.08897e-014 -9.93923e-016
lhumerus -42.8326 -11.9189 92.0191
lradius 31.1313
lwrist 35.4762
lhand -15.0994 -9.69709
lfingers 7.12502
lthumb 11.0689 19.991
rfemur -37.1014 1.18547 16.2421
rtibia 65.0306
rfoot -12.4946 6.27696
rtoes -24.6911
lfemur -16.1255 0.440976 -26.5864
ltibia 29.9643
lfoot -25.2954 -8.84125
ltoes -0.500603
